# xmcd
#
# Track frame offsets:
#	150
#	11614
#	23266
#	36787
#	46824
#	59735
#	73449
#	84837
#	97648
#	107227
#	115818
#	126351
#	137195
#	150330
#	161542
#	172858
#	183335
#	195693
#	207407
#	217655
#	226746
#	239925
#	249150
#	260423
#	274199
#
# Disc length: 3824 seconds
#
# Revision: 1
# Processed by: cddbd v1.5.2PL0 Copyright (c) Steve Scherf et al.
# Submitted via: audiograbber 1.83.01
#
DISCID=4e0eee19
DTITLE=Various Artist - Blues N Rockin
DYEAR=1900
DGENRE=
TTITLE0=Lightning Hopkins - Mad As I Can Be
TTITLE1=Dossie Terry - I Got A Watch Dog
TTITLE2=Billy Boy - I Wish You Would
TTITLE3=Papa Lightfoot - Mean Old Train
TTITLE4=Lightning Hopkins - Im Wild About You Baby
TTITLE5=Jack Dupree - Stumbling Block
TTITLE6=Slim Harpo - Shake Your Hips
TTITLE7=Lightnin Slim - Im Tired Waitin Baby
TTITLE8=Lonesome Sundown - Learn To Treat Me Better
TTITLE9=Wailin Bill Dell - You Gotta Be Loose
TTITLE10=Doctor Ross - Cat Squirrel
TTITLE11=Elmer Parker - You Know I Love You
TTITLE12=Champion Jack Dupree - Old Time Rock N Roll
TTITLE13=Big Jack Reynolds - I Had A Little Dog
TTITLE14=Ralph Willis - Why'd You Do It
TTITLE15=Ralph Willis - Gonna Hop On Down The Line
TTITLE16=Sticks McGee - Money Fever
TTITLE17=Sticks McGee - Sleep In Job
TTITLE18=Sonny And Jaycee - Mr Froggie
TTITLE19=Sonny And Jaycee - You Keep Doggin Me
TTITLE20=Little Shy Guy And The Hot Rods - Lets Rock And Roll
TTITLE21=Little Shy Guy And The Hot Rods - My Little Baby
TTITLE22=Big Ed And His Combo - Biscuit Baking Woman
TTITLE23=Jimmy Rogers - Sloppy Drunk
TTITLE24=Little Walter - Boom Boom (Out Goes The Lights)
EXTD=
EXTT0=
EXTT1=
EXTT2=
EXTT3=
EXTT4=
EXTT5=
EXTT6=
EXTT7=
EXTT8=
EXTT9=
EXTT10=
EXTT11=
EXTT12=
EXTT13=
EXTT14=
EXTT15=
EXTT16=
EXTT17=
EXTT18=
EXTT19=
EXTT20=
EXTT21=
EXTT22=
EXTT23=
EXTT24=
PLAYORDER=
